<mxfile host="app.diagrams.net" modified="2024-02-28T22:09:26.110Z" agent="Mozilla/5.0 (Windows NT 10.0; Win64; x64) AppleWebKit/537.36 (KHTML, like Gecko) Chrome/122.0.0.0 Safari/537.36" etag="gSXuYaHb4z3VBtXGC-GX" version="23.1.8" type="device">
  <diagram id="C5RBs43oDa-KdzZeNtuy" name="Page-1">
    <mxGraphModel dx="2607" dy="2656" grid="1" gridSize="10" guides="1" tooltips="1" connect="1" arrows="1" fold="1" page="1" pageScale="1" pageWidth="827" pageHeight="1169" math="0" shadow="0">
      <root>
        <mxCell id="WIyWlLk6GJQsqaUBKTNV-0" />
        <mxCell id="WIyWlLk6GJQsqaUBKTNV-1" parent="WIyWlLk6GJQsqaUBKTNV-0" />
        <mxCell id="S7_N-UKr1pL8a_zZHFVc-5" value="Начало" style="strokeWidth=2;html=1;shape=mxgraph.flowchart.terminator;whiteSpace=wrap;" parent="WIyWlLk6GJQsqaUBKTNV-1" vertex="1">
          <mxGeometry x="360" y="-620" width="100" height="60" as="geometry" />
        </mxCell>
        <mxCell id="tAWyhYt2iqQ36pVHwljJ-7" value="Нет" style="edgeStyle=orthogonalEdgeStyle;rounded=0;orthogonalLoop=1;jettySize=auto;html=1;fontFamily=Helvetica;fontSize=12;fontColor=default;entryX=0.5;entryY=0;entryDx=0;entryDy=0;entryPerimeter=0;" parent="WIyWlLk6GJQsqaUBKTNV-1" source="tAWyhYt2iqQ36pVHwljJ-1" target="o1KFUSoeTvBDRn-8kvO2-5" edge="1">
          <mxGeometry x="0.0196" y="20" relative="1" as="geometry">
            <mxPoint x="-1" y="-5" as="offset" />
            <mxPoint x="410" y="-320" as="targetPoint" />
          </mxGeometry>
        </mxCell>
        <mxCell id="tAWyhYt2iqQ36pVHwljJ-1" value="&lt;p style=&quot;line-height: 80%;&quot;&gt;point.x&lt;sup&gt;2&lt;/sup&gt; + point.y&lt;sup&gt;2&lt;br&gt;&lt;/sup&gt;&amp;gt; R&lt;sup&gt;2&lt;/sup&gt;&lt;/p&gt;" style="strokeWidth=2;html=1;shape=mxgraph.flowchart.decision;whiteSpace=wrap;" parent="WIyWlLk6GJQsqaUBKTNV-1" vertex="1">
          <mxGeometry x="310" y="-420" width="200" height="60" as="geometry" />
        </mxCell>
        <mxCell id="o1KFUSoeTvBDRn-8kvO2-2" value="" style="edgeStyle=orthogonalEdgeStyle;rounded=0;orthogonalLoop=1;jettySize=auto;html=1;" parent="WIyWlLk6GJQsqaUBKTNV-1" source="o1KFUSoeTvBDRn-8kvO2-0" target="tAWyhYt2iqQ36pVHwljJ-1" edge="1">
          <mxGeometry relative="1" as="geometry" />
        </mxCell>
        <mxCell id="o1KFUSoeTvBDRn-8kvO2-0" value="Point2D point;&lt;br&gt;short a;&lt;br&gt;short b;&lt;br&gt;unsigned short R;" style="rounded=1;whiteSpace=wrap;html=1;absoluteArcSize=1;arcSize=14;strokeWidth=2;strokeColor=default;align=center;verticalAlign=middle;fillColor=default;" parent="WIyWlLk6GJQsqaUBKTNV-1" vertex="1">
          <mxGeometry x="310" y="-540" width="200" height="80" as="geometry" />
        </mxCell>
        <mxCell id="o1KFUSoeTvBDRn-8kvO2-1" value="" style="edgeStyle=orthogonalEdgeStyle;rounded=0;orthogonalLoop=1;jettySize=auto;html=1;" parent="WIyWlLk6GJQsqaUBKTNV-1" source="S7_N-UKr1pL8a_zZHFVc-5" target="o1KFUSoeTvBDRn-8kvO2-0" edge="1">
          <mxGeometry relative="1" as="geometry" />
        </mxCell>
        <mxCell id="o1KFUSoeTvBDRn-8kvO2-4" value="Да" style="edgeStyle=orthogonalEdgeStyle;rounded=0;orthogonalLoop=1;jettySize=auto;html=1;fontFamily=Helvetica;fontSize=12;fontColor=default;entryX=0.5;entryY=0;entryDx=0;entryDy=0;entryPerimeter=0;" parent="WIyWlLk6GJQsqaUBKTNV-1" source="o1KFUSoeTvBDRn-8kvO2-5" target="9ljaJpIGZ5TEdeZAWfaT-8" edge="1">
          <mxGeometry x="0.6667" y="19" relative="1" as="geometry">
            <mxPoint as="offset" />
            <mxPoint x="411" y="-220" as="targetPoint" />
          </mxGeometry>
        </mxCell>
        <mxCell id="o1KFUSoeTvBDRn-8kvO2-5" value="point.x&lt;sup style=&quot;border-color: var(--border-color);&quot;&gt;2&lt;/sup&gt;&amp;nbsp;+ point.y&lt;sup style=&quot;border-color: var(--border-color);&quot;&gt;2&lt;br style=&quot;border-color: var(--border-color);&quot;&gt;&lt;/sup&gt;&amp;lt; R&lt;sup style=&quot;border-color: var(--border-color);&quot;&gt;2&lt;/sup&gt;" style="strokeWidth=2;html=1;shape=mxgraph.flowchart.decision;whiteSpace=wrap;" parent="WIyWlLk6GJQsqaUBKTNV-1" vertex="1">
          <mxGeometry x="310" y="-310" width="200" height="70" as="geometry" />
        </mxCell>
        <mxCell id="tAWyhYt2iqQ36pVHwljJ-11" value="Да" style="edgeStyle=orthogonalEdgeStyle;rounded=0;orthogonalLoop=1;jettySize=auto;html=1;exitX=1;exitY=0.5;exitDx=0;exitDy=0;exitPerimeter=0;fontFamily=Helvetica;fontSize=12;fontColor=default;entryX=0;entryY=0.5;entryDx=0;entryDy=0;entryPerimeter=0;" parent="WIyWlLk6GJQsqaUBKTNV-1" source="tAWyhYt2iqQ36pVHwljJ-1" target="9ljaJpIGZ5TEdeZAWfaT-2" edge="1">
          <mxGeometry x="-0.3333" y="10" relative="1" as="geometry">
            <mxPoint x="430" y="-210" as="targetPoint" />
            <Array as="points" />
            <mxPoint as="offset" />
          </mxGeometry>
        </mxCell>
        <mxCell id="9ljaJpIGZ5TEdeZAWfaT-2" value="Вернуть 0" style="strokeWidth=2;html=1;shape=mxgraph.flowchart.terminator;whiteSpace=wrap;" vertex="1" parent="WIyWlLk6GJQsqaUBKTNV-1">
          <mxGeometry x="570" y="-420" width="100" height="60" as="geometry" />
        </mxCell>
        <mxCell id="9ljaJpIGZ5TEdeZAWfaT-3" value="Конец&lt;br&gt;(точка находится на одной из линий)" style="strokeWidth=2;html=1;shape=mxgraph.flowchart.terminator;whiteSpace=wrap;" vertex="1" parent="WIyWlLk6GJQsqaUBKTNV-1">
          <mxGeometry x="360" y="140" width="100" height="60" as="geometry" />
        </mxCell>
        <mxCell id="9ljaJpIGZ5TEdeZAWfaT-7" value="Нет" style="edgeStyle=orthogonalEdgeStyle;rounded=0;orthogonalLoop=1;jettySize=auto;html=1;fontFamily=Helvetica;fontSize=12;fontColor=default;entryX=0.5;entryY=0;entryDx=0;entryDy=0;entryPerimeter=0;" edge="1" source="9ljaJpIGZ5TEdeZAWfaT-8" parent="WIyWlLk6GJQsqaUBKTNV-1" target="9ljaJpIGZ5TEdeZAWfaT-13">
          <mxGeometry x="0.6667" y="19" relative="1" as="geometry">
            <mxPoint as="offset" />
            <mxPoint x="411" y="-120" as="targetPoint" />
          </mxGeometry>
        </mxCell>
        <mxCell id="9ljaJpIGZ5TEdeZAWfaT-8" value="point.y &amp;gt; a" style="strokeWidth=2;html=1;shape=mxgraph.flowchart.decision;whiteSpace=wrap;" vertex="1" parent="WIyWlLk6GJQsqaUBKTNV-1">
          <mxGeometry x="310" y="-210" width="200" height="70" as="geometry" />
        </mxCell>
        <mxCell id="9ljaJpIGZ5TEdeZAWfaT-9" value="&lt;span style=&quot;color: rgb(0, 0, 0); font-family: Helvetica; font-size: 12px; font-style: normal; font-variant-ligatures: normal; font-variant-caps: normal; font-weight: 400; letter-spacing: normal; orphans: 2; text-align: center; text-indent: 0px; text-transform: none; widows: 2; word-spacing: 0px; -webkit-text-stroke-width: 0px; background-color: rgb(251, 251, 251); text-decoration-thickness: initial; text-decoration-style: initial; text-decoration-color: initial; float: none; display: inline !important;&quot;&gt;Вернуть 1&lt;/span&gt;" style="strokeWidth=2;html=1;shape=mxgraph.flowchart.terminator;whiteSpace=wrap;" vertex="1" parent="WIyWlLk6GJQsqaUBKTNV-1">
          <mxGeometry x="570" y="-205" width="100" height="60" as="geometry" />
        </mxCell>
        <mxCell id="9ljaJpIGZ5TEdeZAWfaT-10" style="edgeStyle=orthogonalEdgeStyle;rounded=0;orthogonalLoop=1;jettySize=auto;html=1;entryX=0;entryY=0.5;entryDx=0;entryDy=0;entryPerimeter=0;" edge="1" source="9ljaJpIGZ5TEdeZAWfaT-8" target="9ljaJpIGZ5TEdeZAWfaT-9" parent="WIyWlLk6GJQsqaUBKTNV-1">
          <mxGeometry relative="1" as="geometry" />
        </mxCell>
        <mxCell id="9ljaJpIGZ5TEdeZAWfaT-11" value="Да" style="edgeLabel;html=1;align=center;verticalAlign=middle;resizable=0;points=[];" vertex="1" connectable="0" parent="9ljaJpIGZ5TEdeZAWfaT-10">
          <mxGeometry x="-0.3016" y="-2" relative="1" as="geometry">
            <mxPoint y="-17" as="offset" />
          </mxGeometry>
        </mxCell>
        <mxCell id="9ljaJpIGZ5TEdeZAWfaT-12" value="&lt;span style=&quot;color: rgb(0, 0, 0); font-family: Helvetica; font-size: 12px; font-style: normal; font-variant-ligatures: normal; font-variant-caps: normal; font-weight: 400; letter-spacing: normal; orphans: 2; text-align: center; text-indent: 0px; text-transform: none; widows: 2; word-spacing: 0px; -webkit-text-stroke-width: 0px; background-color: rgb(255, 255, 255); text-decoration-thickness: initial; text-decoration-style: initial; text-decoration-color: initial; float: none; display: inline !important;&quot;&gt;Нет&lt;/span&gt;" style="edgeStyle=orthogonalEdgeStyle;rounded=0;orthogonalLoop=1;jettySize=auto;html=1;fontFamily=Helvetica;fontSize=12;fontColor=default;" edge="1" source="9ljaJpIGZ5TEdeZAWfaT-13" parent="WIyWlLk6GJQsqaUBKTNV-1">
          <mxGeometry x="-0.208" y="20" relative="1" as="geometry">
            <mxPoint as="offset" />
            <mxPoint x="410" y="10" as="targetPoint" />
          </mxGeometry>
        </mxCell>
        <mxCell id="9ljaJpIGZ5TEdeZAWfaT-13" value="point.y &amp;lt; a И point.y &amp;gt; b" style="strokeWidth=2;html=1;shape=mxgraph.flowchart.decision;whiteSpace=wrap;" vertex="1" parent="WIyWlLk6GJQsqaUBKTNV-1">
          <mxGeometry x="310" y="-110" width="200" height="70" as="geometry" />
        </mxCell>
        <mxCell id="9ljaJpIGZ5TEdeZAWfaT-14" value="&lt;span style=&quot;color: rgb(0, 0, 0); font-family: Helvetica; font-size: 12px; font-style: normal; font-variant-ligatures: normal; font-variant-caps: normal; font-weight: 400; letter-spacing: normal; orphans: 2; text-align: center; text-indent: 0px; text-transform: none; widows: 2; word-spacing: 0px; -webkit-text-stroke-width: 0px; background-color: rgb(251, 251, 251); text-decoration-thickness: initial; text-decoration-style: initial; text-decoration-color: initial; float: none; display: inline !important;&quot;&gt;Вернуть 2&lt;/span&gt;" style="strokeWidth=2;html=1;shape=mxgraph.flowchart.terminator;whiteSpace=wrap;" vertex="1" parent="WIyWlLk6GJQsqaUBKTNV-1">
          <mxGeometry x="570" y="-105" width="100" height="60" as="geometry" />
        </mxCell>
        <mxCell id="9ljaJpIGZ5TEdeZAWfaT-15" style="edgeStyle=orthogonalEdgeStyle;rounded=0;orthogonalLoop=1;jettySize=auto;html=1;entryX=0;entryY=0.5;entryDx=0;entryDy=0;entryPerimeter=0;" edge="1" source="9ljaJpIGZ5TEdeZAWfaT-13" target="9ljaJpIGZ5TEdeZAWfaT-14" parent="WIyWlLk6GJQsqaUBKTNV-1">
          <mxGeometry relative="1" as="geometry" />
        </mxCell>
        <mxCell id="9ljaJpIGZ5TEdeZAWfaT-16" value="Да" style="edgeLabel;html=1;align=center;verticalAlign=middle;resizable=0;points=[];" vertex="1" connectable="0" parent="9ljaJpIGZ5TEdeZAWfaT-15">
          <mxGeometry x="-0.3016" y="-2" relative="1" as="geometry">
            <mxPoint y="-17" as="offset" />
          </mxGeometry>
        </mxCell>
        <mxCell id="9ljaJpIGZ5TEdeZAWfaT-17" value="Нет" style="edgeStyle=orthogonalEdgeStyle;rounded=0;orthogonalLoop=1;jettySize=auto;html=1;fontFamily=Helvetica;fontSize=12;fontColor=default;entryX=0.5;entryY=0;entryDx=0;entryDy=0;entryPerimeter=0;" edge="1" source="9ljaJpIGZ5TEdeZAWfaT-18" parent="WIyWlLk6GJQsqaUBKTNV-1" target="9ljaJpIGZ5TEdeZAWfaT-3">
          <mxGeometry x="-0.3333" y="20" relative="1" as="geometry">
            <mxPoint as="offset" />
            <mxPoint x="410" y="130" as="targetPoint" />
          </mxGeometry>
        </mxCell>
        <mxCell id="9ljaJpIGZ5TEdeZAWfaT-18" value="point.y &amp;lt; b" style="strokeWidth=2;html=1;shape=mxgraph.flowchart.decision;whiteSpace=wrap;" vertex="1" parent="WIyWlLk6GJQsqaUBKTNV-1">
          <mxGeometry x="310" y="10" width="200" height="70" as="geometry" />
        </mxCell>
        <mxCell id="9ljaJpIGZ5TEdeZAWfaT-19" value="&lt;span style=&quot;color: rgb(0, 0, 0); font-family: Helvetica; font-size: 12px; font-style: normal; font-variant-ligatures: normal; font-variant-caps: normal; font-weight: 400; letter-spacing: normal; orphans: 2; text-align: center; text-indent: 0px; text-transform: none; widows: 2; word-spacing: 0px; -webkit-text-stroke-width: 0px; background-color: rgb(251, 251, 251); text-decoration-thickness: initial; text-decoration-style: initial; text-decoration-color: initial; float: none; display: inline !important;&quot;&gt;Вернуть 3&lt;/span&gt;" style="strokeWidth=2;html=1;shape=mxgraph.flowchart.terminator;whiteSpace=wrap;" vertex="1" parent="WIyWlLk6GJQsqaUBKTNV-1">
          <mxGeometry x="570" y="15" width="100" height="60" as="geometry" />
        </mxCell>
        <mxCell id="9ljaJpIGZ5TEdeZAWfaT-20" style="edgeStyle=orthogonalEdgeStyle;rounded=0;orthogonalLoop=1;jettySize=auto;html=1;entryX=0;entryY=0.5;entryDx=0;entryDy=0;entryPerimeter=0;" edge="1" source="9ljaJpIGZ5TEdeZAWfaT-18" target="9ljaJpIGZ5TEdeZAWfaT-19" parent="WIyWlLk6GJQsqaUBKTNV-1">
          <mxGeometry relative="1" as="geometry" />
        </mxCell>
        <mxCell id="9ljaJpIGZ5TEdeZAWfaT-21" value="Да" style="edgeLabel;html=1;align=center;verticalAlign=middle;resizable=0;points=[];" vertex="1" connectable="0" parent="9ljaJpIGZ5TEdeZAWfaT-20">
          <mxGeometry x="-0.3016" y="-2" relative="1" as="geometry">
            <mxPoint y="-17" as="offset" />
          </mxGeometry>
        </mxCell>
        <mxCell id="9ljaJpIGZ5TEdeZAWfaT-22" style="edgeStyle=orthogonalEdgeStyle;rounded=0;orthogonalLoop=1;jettySize=auto;html=1;" edge="1" parent="WIyWlLk6GJQsqaUBKTNV-1" source="o1KFUSoeTvBDRn-8kvO2-5">
          <mxGeometry relative="1" as="geometry">
            <mxPoint x="410" y="120" as="targetPoint" />
            <Array as="points">
              <mxPoint x="720" y="-275" />
              <mxPoint x="720" y="120" />
              <mxPoint x="410" y="120" />
            </Array>
          </mxGeometry>
        </mxCell>
        <mxCell id="9ljaJpIGZ5TEdeZAWfaT-23" value="Нет" style="edgeLabel;html=1;align=center;verticalAlign=middle;resizable=0;points=[];" vertex="1" connectable="0" parent="9ljaJpIGZ5TEdeZAWfaT-22">
          <mxGeometry x="-0.919" y="-1" relative="1" as="geometry">
            <mxPoint x="-18" y="-16" as="offset" />
          </mxGeometry>
        </mxCell>
      </root>
    </mxGraphModel>
  </diagram>
</mxfile>
